# xmcd
# 
# Track frame offsets:
#     150
#     14311
#     42091
#     53550
#     92369
#     116769
#     139978
#     178402
#     195370
#     207357
#     230482
#     242257
#     257810
#     273374
#     289841
#     307188
# 
# Disc length: 4293
# 
# Revision: 2
# Processed by: cddbd v1.5.2PL0 Copyright (c) Steve Scherf et al.
# Submitted via: fre:ac v1.0.17
# 
DISCID=e210c310
DTITLE=B.B. King - Blues Boys Tune - Best [Zounds]
DYEAR=2007
DGENRE=Blues
TTITLE0=B.B. King - Every Day I Have The Blues [live - Regal Theater]
TTITLE1=B.B. King - Sweet Sixteen, Parts 1 and 2 [live - International Club, Chicago]
TTITLE2=B.B. King - Paying The Cost To Be The Boss
TTITLE3=B.B. King - Why I Sing The Blues [album version]
TTITLE4=B.B. King - The Thrill Is Gone [single version 1969]
TTITLE5=B.B. King - Don't Answer The Door [album version]
TTITLE6=B.B. King and Stevie Wonder - To Know You Is To Love You
TTITLE7=B.B. King - There Must Be A Better World Somewhere [single version]
TTITLE8=B.B. King - Let The Good Times Roll [album version]
TTITLE9=B.B. King - When Love Comes To Town [live - Apollo Theater]
TTITLE10=B.B. King - Help The Poor [live - Regal Theater]
TTITLE11=B.B. King - Whole Lotta Loving [live - San Quentin 1990]
TTITLE12=B.B. King - Blues Boys Tune [album version]
TTITLE13=B.B. King - My Lucille
TTITLE14=B.B. King - Peace To The World [live - San Quentin 1990]
TTITLE15=B.B. King and Bobby Bland - Three O'Clock Blues [live]
EXTD=
EXTT0=
EXTT1=
EXTT2=
EXTT3=
EXTT4=
EXTT5=
EXTT6=
EXTT7=
EXTT8=
EXTT9=
EXTT10=
EXTT11=
EXTT12=
EXTT13=
EXTT14=
EXTT15=
PLAYORDER=
